<svg xmlns="http://www.w3.org/2000/svg" xmlns:xlink="http://www.w3.org/1999/xlink" width="567" zoomAndPan="magnify" viewBox="0 0 425.25 425.249985" height="567" preserveAspectRatio="xMidYMid meet" version="1.0"><defs><g/><clipPath id="85ab2699b2"><path d="M 0 0 L 424.5 0 L 424.5 424.5 L 0 424.5 Z M 0 0 " clip-rule="nonzero"/></clipPath><clipPath id="816acb7d8d"><path d="M 146.054688 119 L 277.824219 119 L 277.824219 250.707031 L 146.054688 250.707031 Z M 146.054688 119 " clip-rule="nonzero"/></clipPath></defs><g clip-path="url(#85ab2699b2)"><path fill="#ffffff" d="M 0 0 L 424.5 0 L 424.5 424.5 L 0 424.5 Z M 0 0 " fill-opacity="1" fill-rule="nonzero"/><path fill="#ffffff" d="M 0 0 L 424.5 0 L 424.5 424.5 L 0 424.5 Z M 0 0 " fill-opacity="1" fill-rule="nonzero"/></g><g clip-path="url(#816acb7d8d)"><path fill="#f15a29" d="M 276.03125 181.847656 L 261.390625 167.148438 L 257.140625 175.6875 L 266.464844 185.046875 L 238.496094 213.117188 L 228.40625 223.242188 L 253.777344 172.3125 L 258.027344 163.773438 L 276.878906 125.941406 C 277.746094 124.195312 277.402344 122.09375 276.03125 120.710938 C 274.664062 119.335938 272.566406 118.984375 270.824219 119.863281 L 237.378906 136.644531 L 244.105469 143.394531 L 262.75 134.035156 L 253.429688 152.75 L 251.300781 157.023438 L 247.941406 153.648438 L 243.21875 148.910156 L 239.855469 145.53125 L 229.765625 135.40625 L 215.128906 120.710938 C 213.367188 118.941406 210.511719 118.941406 208.75 120.710938 L 194.113281 135.40625 L 184.023438 145.53125 L 180.660156 148.910156 L 175.941406 153.648438 L 172.578125 157.023438 L 170.453125 152.75 L 161.125 134.035156 L 179.769531 143.394531 L 186.492188 136.648438 L 153.050781 119.863281 C 151.3125 118.988281 149.21875 119.328125 147.839844 120.710938 C 146.46875 122.085938 146.125 124.195312 146.996094 125.941406 L 165.84375 163.773438 L 170.09375 172.3125 L 195.464844 223.242188 L 185.378906 213.117188 L 157.410156 185.046875 L 166.734375 175.6875 L 162.480469 167.148438 L 147.847656 181.847656 C 146.082031 183.617188 146.082031 186.480469 147.847656 188.25 L 198.140625 238.734375 L 208.75 249.382812 C 208.992188 249.625 209.25 249.824219 209.527344 250 C 209.589844 250.035156 209.65625 250.058594 209.714844 250.097656 C 209.980469 250.246094 210.257812 250.367188 210.554688 250.464844 C 210.652344 250.496094 210.742188 250.527344 210.839844 250.550781 C 211.195312 250.640625 211.5625 250.707031 211.941406 250.707031 C 212.324219 250.707031 212.691406 250.640625 213.046875 250.550781 C 213.144531 250.527344 213.234375 250.496094 213.332031 250.464844 C 213.621094 250.367188 213.90625 250.246094 214.171875 250.097656 C 214.230469 250.058594 214.296875 250.035156 214.359375 250 C 214.628906 249.824219 214.894531 249.625 215.136719 249.382812 L 225.746094 238.734375 L 276.039062 188.25 C 277.796875 186.480469 277.796875 183.609375 276.03125 181.847656 Z M 211.941406 236.054688 L 178.953125 169.835938 L 176.828125 165.5625 L 180.191406 162.1875 L 211.941406 130.316406 L 243.695312 162.1875 L 247.058594 165.5625 L 244.933594 169.828125 Z M 211.941406 236.054688 " fill-opacity="1" fill-rule="nonzero"/></g><g fill="#000000" fill-opacity="1"><g transform="translate(97.852432, 292.591226)"><g><path d="M 3.359375 0 L 3.359375 -31.8125 L 16.765625 -31.8125 C 19.460938 -31.8125 21.800781 -31.320312 23.78125 -30.34375 C 25.769531 -29.375 27.300781 -27.992188 28.375 -26.203125 C 29.445312 -24.421875 29.984375 -22.304688 29.984375 -19.859375 C 29.984375 -17.429688 29.445312 -15.316406 28.375 -13.515625 C 27.300781 -11.710938 25.769531 -10.316406 23.78125 -9.328125 C 21.800781 -8.347656 19.460938 -7.859375 16.765625 -7.859375 L 12.546875 -7.859375 L 12.546875 0 Z M 12.453125 -15.546875 L 15.90625 -15.546875 C 17.414062 -15.546875 18.59375 -15.921875 19.4375 -16.671875 C 20.289062 -17.429688 20.71875 -18.476562 20.71875 -19.8125 C 20.71875 -21.144531 20.289062 -22.1875 19.4375 -22.9375 C 18.59375 -23.695312 17.414062 -24.078125 15.90625 -24.078125 L 12.453125 -24.078125 Z M 12.453125 -15.546875 "/></g></g></g><g fill="#000000" fill-opacity="1"><g transform="translate(128.874688, 292.591226)"><g><path d="M 3.359375 0 L 3.359375 -31.8125 L 12.546875 -31.8125 L 12.546875 0 Z M 3.359375 0 "/></g></g></g><g fill="#000000" fill-opacity="1"><g transform="translate(144.771889, 292.591226)"><g><path d="M 3.359375 0 L 3.359375 -31.8125 L 10.859375 -31.8125 L 22.953125 -15.671875 L 22.953125 -31.8125 L 31.984375 -31.8125 L 31.984375 0 L 24.53125 0 L 12.453125 -16.21875 L 12.453125 0 Z M 3.359375 0 "/></g></g></g><g fill="#000000" fill-opacity="1"><g transform="translate(180.154523, 292.591226)"><g><path d="M 0.234375 0 L 12.59375 -31.8125 L 21.671875 -31.8125 L 34.03125 0 L 24.265625 0 L 22.53125 -4.5 L 11.671875 -4.5 L 9.953125 0 Z M 13.578125 -11.21875 L 20.671875 -11.21875 L 17.125 -21.078125 Z M 13.578125 -11.21875 "/></g></g></g><g fill="#000000" fill-opacity="1"><g transform="translate(214.401642, 292.591226)"><g/></g></g><g fill="#f15a29" fill-opacity="1"><g transform="translate(224.905048, 292.591226)"><g><path d="M 3.359375 0 L 3.359375 -31.8125 L 16.765625 -31.8125 C 19.460938 -31.8125 21.800781 -31.320312 23.78125 -30.34375 C 25.769531 -29.375 27.300781 -27.992188 28.375 -26.203125 C 29.445312 -24.421875 29.984375 -22.304688 29.984375 -19.859375 C 29.984375 -17.429688 29.445312 -15.316406 28.375 -13.515625 C 27.300781 -11.710938 25.769531 -10.316406 23.78125 -9.328125 C 21.800781 -8.347656 19.460938 -7.859375 16.765625 -7.859375 L 12.546875 -7.859375 L 12.546875 0 Z M 12.453125 -15.546875 L 15.90625 -15.546875 C 17.414062 -15.546875 18.59375 -15.921875 19.4375 -16.671875 C 20.289062 -17.429688 20.71875 -18.476562 20.71875 -19.8125 C 20.71875 -21.144531 20.289062 -22.1875 19.4375 -22.9375 C 18.59375 -23.695312 17.414062 -24.078125 15.90625 -24.078125 L 12.453125 -24.078125 Z M 12.453125 -15.546875 "/></g></g></g><g fill="#f15a29" fill-opacity="1"><g transform="translate(255.927304, 292.591226)"><g><path d="M 3.359375 0 L 3.359375 -31.8125 L 17.859375 -31.8125 C 20.429688 -31.8125 22.648438 -31.347656 24.515625 -30.421875 C 26.378906 -29.492188 27.816406 -28.179688 28.828125 -26.484375 C 29.847656 -24.796875 30.359375 -22.769531 30.359375 -20.40625 C 30.359375 -18.1875 29.898438 -16.25 28.984375 -14.59375 C 28.078125 -12.945312 26.773438 -11.65625 25.078125 -10.71875 L 30.9375 0 L 20.53125 0 L 16 -9.046875 L 12.546875 -9.046875 L 12.546875 0 Z M 12.359375 -16.359375 L 16.625 -16.359375 C 18.082031 -16.359375 19.195312 -16.707031 19.96875 -17.40625 C 20.738281 -18.101562 21.125 -19.085938 21.125 -20.359375 C 21.125 -21.628906 20.738281 -22.601562 19.96875 -23.28125 C 19.195312 -23.96875 18.082031 -24.3125 16.625 -24.3125 L 12.359375 -24.3125 Z M 12.359375 -16.359375 "/></g></g></g><g fill="#f15a29" fill-opacity="1"><g transform="translate(288.630135, 292.591226)"><g><path d="M 18.859375 0.6875 C 16.316406 0.6875 13.988281 0.285156 11.875 -0.515625 C 9.769531 -1.328125 7.945312 -2.472656 6.40625 -3.953125 C 4.863281 -5.429688 3.664062 -7.1875 2.8125 -9.21875 C 1.96875 -11.25 1.546875 -13.476562 1.546875 -15.90625 C 1.546875 -18.320312 1.96875 -20.546875 2.8125 -22.578125 C 3.664062 -24.609375 4.863281 -26.363281 6.40625 -27.84375 C 7.945312 -29.332031 9.769531 -30.476562 11.875 -31.28125 C 13.988281 -32.082031 16.316406 -32.484375 18.859375 -32.484375 C 21.398438 -32.484375 23.722656 -32.082031 25.828125 -31.28125 C 27.929688 -30.476562 29.753906 -29.332031 31.296875 -27.84375 C 32.847656 -26.363281 34.046875 -24.609375 34.890625 -22.578125 C 35.742188 -20.546875 36.171875 -18.320312 36.171875 -15.90625 C 36.171875 -13.476562 35.742188 -11.25 34.890625 -9.21875 C 34.046875 -7.1875 32.847656 -5.429688 31.296875 -3.953125 C 29.753906 -2.472656 27.929688 -1.328125 25.828125 -0.515625 C 23.722656 0.285156 21.398438 0.6875 18.859375 0.6875 Z M 10.859375 -15.90625 C 10.859375 -14.332031 11.195312 -12.929688 11.875 -11.703125 C 12.5625 -10.472656 13.507812 -9.515625 14.71875 -8.828125 C 15.9375 -8.148438 17.316406 -7.8125 18.859375 -7.8125 C 20.429688 -7.8125 21.816406 -8.148438 23.015625 -8.828125 C 24.210938 -9.515625 25.148438 -10.472656 25.828125 -11.703125 C 26.515625 -12.929688 26.859375 -14.332031 26.859375 -15.90625 C 26.859375 -17.507812 26.515625 -18.914062 25.828125 -20.125 C 25.148438 -21.34375 24.210938 -22.289062 23.015625 -22.96875 C 21.816406 -23.644531 20.429688 -23.984375 18.859375 -23.984375 C 17.316406 -23.984375 15.9375 -23.644531 14.71875 -22.96875 C 13.507812 -22.289062 12.5625 -21.34375 11.875 -20.125 C 11.195312 -18.914062 10.859375 -17.507812 10.859375 -15.90625 Z M 10.859375 -15.90625 "/></g></g></g></svg>